<?xml version="1.0" encoding="UTF-8"?>
<svg width="269px" height="189px" viewBox="0 0 269 189" version="1.1" xmlns="http://www.w3.org/2000/svg" xmlns:xlink="http://www.w3.org/1999/xlink">
    <!-- Generator: Sketch 63.1 (92452) - https://sketch.com -->
    <title>y</title>
    <desc>Created with Sketch.</desc>
    <g id="Scratch" stroke="none" stroke-width="1" fill="none" fill-rule="evenodd">
        <path d="M238.788759,183.369021 C250.307803,180.270593 259.37999,171.519643 262.459267,159.925915 C267.774132,139.961743 268.039875,99.3927797 268.053163,95.3857938 L268.053163,94.7447807 C268.039875,90.7378381 267.774132,50.1693072 262.459267,30.2051344 C259.37999,18.6109276 250.307803,9.47985535 238.788759,6.38142829 C218.744961,0.975688002 140.784425,0.75945839 134.579652,0.750809206 L133.794677,0.750809206 C127.589939,0.75945839 49.629825,0.975688002 29.585568,6.38142829 C18.0665239,9.48033409 8.9943371,18.6109276 5.91505977,30.2051344 C0.544248599,50.3794564 0.329416153,91.5941954 0.320822855,94.8590956 L0.320822855,95.2714776 C0.329416153,98.5364131 0.544248599,139.751593 5.91505977,159.925915 C8.9943371,171.519643 18.0665239,180.270593 29.585568,183.369021 C49.4210307,188.718451 125.972054,188.985923 133.577568,188.999296 L134.796759,188.999296 C142.402273,188.985923 218.953296,188.718451 238.788759,183.369021 Z M106.804958,134.873754 L106.804958,55.2568172 L176.780482,95.066243 L106.804958,134.873754 Z" id="y" fill="#D35159" fill-rule="nonzero"></path>
    </g>
</svg>