<?xml version="1.0" encoding="UTF-8"?>
<svg width="271px" height="106px" viewBox="0 0 271 106" version="1.1" xmlns="http://www.w3.org/2000/svg" xmlns:xlink="http://www.w3.org/1999/xlink">
    <!-- Generator: Sketch 63.1 (92452) - https://sketch.com -->
    <title>wordmark</title>
    <desc>Created with Sketch.</desc>
    <g id="Page-1" stroke="none" stroke-width="1" fill="none" fill-rule="evenodd">
        <g id="wordmark">
            <path d="M15.6682842,100.922817 L15.6682842,101.990245 L0.416248201,101.990245 L0.416248201,100.922817 L15.6682842,100.922817 Z M267.279112,100.922817 L267.279112,101.990245 L252.027076,101.990245 L252.027076,100.922817 L267.279112,100.922817 Z M92.1341511,44.4532608 C96.080223,44.4532608 98.0547212,47.0423831 98.0547212,52.2206277 L98.0547212,56.9368076 L95.4802212,56.9368076 L95.4802212,51.9988561 C95.4802212,50.6672518 95.1916745,49.6319928 94.6160432,48.8916169 C94.0399245,48.1522158 93.175259,47.7822716 92.023509,47.7822716 C90.8712716,47.7822716 90.0070935,48.1522158 89.4309748,48.8916169 C88.8543687,49.6319928 88.5663094,50.6492176 88.5663094,51.9432914 C88.5663094,53.2383399 88.6520935,54.2555647 88.8241493,54.9949658 C88.9952302,55.7353417 89.3763849,56.5122734 89.9642014,57.3252734 L96.5466745,66.8682752 C97.2573183,68.0521942 97.7476529,69.1898094 98.0176781,70.2801457 C98.2872158,71.3714568 98.4222284,72.7493651 98.4222284,74.4138705 C98.4222284,79.5930899 96.3502482,82.1812374 92.2072626,82.1812374 C88.064277,82.1812374 85.9922968,79.5930899 85.9922968,74.4138705 L85.9922968,69.6976906 L88.5663094,69.6976906 L88.5663094,74.6361295 C88.5663094,75.9672464 88.8728903,77.0034802 89.4860522,77.7428813 C90.0987266,78.4832572 91.0057968,78.8522266 92.2072626,78.8522266 C93.408241,78.8522266 94.3157986,78.4832572 94.928473,77.7428813 C95.5411475,77.0034802 95.8482158,75.9950288 95.8482158,74.7189892 C95.8482158,73.4424622 95.7560953,72.4257248 95.5718543,71.6678022 C95.3885881,70.9093921 95.0142572,70.1051655 94.4508112,69.2536601 L87.9780054,59.7111457 C87.2181331,58.5647572 86.6966043,57.4456637 86.4153687,56.3543525 C86.1331583,55.2635288 85.9922968,53.8846457 85.9922968,52.2206277 C85.9922968,49.7426349 86.5006655,47.8290629 87.5183777,46.4784496 C88.5356025,45.1288112 90.0743561,44.4532608 92.1341511,44.4532608 Z M2.5745,45.2852698 L2.5745,78.0197302 L9.30368345,78.0197302 L9.30368345,81.3492284 L-4.54747351e-13,81.3492284 L-4.54747351e-13,45.2852698 L2.5745,45.2852698 Z M19.9321475,45.2852698 L19.9321475,48.6142806 L18.0936367,48.6142806 L18.0936367,78.0197302 L19.9321475,78.0197302 L19.9321475,81.3492284 L13.6806259,81.3492284 L13.6806259,78.0197302 L15.5191367,78.0197302 L15.5191367,48.6142806 L13.6806259,48.6142806 L13.6806259,45.2852698 L19.9321475,45.2852698 Z M36.6532374,45.2852698 L36.6532374,48.6142806 L29.1139784,48.6142806 L29.1139784,61.3751637 L35.1817464,61.3751637 L35.1817464,64.7046619 L29.1139784,64.7046619 L29.1139784,81.3492284 L26.5399658,81.3492284 L26.5399658,45.2852698 L36.6532374,45.2852698 Z M52.281554,45.2852698 L52.281554,48.6142806 L44.3747878,48.6142806 L44.3747878,61.3751637 L50.8105504,61.3751637 L50.8105504,64.7046619 L44.3747878,64.7046619 L44.3747878,78.0197302 L52.6495486,78.0197302 L52.6495486,81.3492284 L41.8007752,81.3492284 L41.8007752,45.2852698 L52.281554,45.2852698 Z M75.462777,45.2852698 L80.8681547,81.3492284 L78.2941421,81.3492284 L77.0439353,73.0267014 L70.0203561,73.0267014 L68.7696619,81.3492284 L66.1956493,81.3492284 L71.601027,45.2852698 L75.462777,45.2852698 Z M113.338926,45.2852698 L116.354532,75.7454748 L120.289394,45.2852698 L123.047647,45.2852698 L126.982509,75.7454748 L129.99714,45.2852698 L132.572128,45.2852698 L129.004773,81.3492284 L125.400863,81.3492284 L121.649268,52.5540162 L117.935691,81.3492284 L114.331781,81.3492284 L110.764426,45.2852698 L113.338926,45.2852698 Z M149.096304,45.2852698 L149.096304,48.6142806 L141.189538,48.6142806 L141.189538,61.3751637 L147.624813,61.3751637 L147.624813,64.7046619 L141.189538,64.7046619 L141.189538,78.0197302 L149.464299,78.0197302 L149.464299,81.3492284 L138.615525,81.3492284 L138.615525,45.2852698 L149.096304,45.2852698 Z M253.899705,45.2852698 L253.899705,48.6142806 L252.061194,48.6142806 L252.061194,78.0197302 L253.899705,78.0197302 L253.899705,81.3492284 L247.648183,81.3492284 L247.648183,78.0197302 L249.487182,78.0197302 L249.487182,48.6142806 L247.648183,48.6142806 L247.648183,45.2852698 L253.899705,45.2852698 Z M270.780178,45.2852698 L270.780178,48.6142806 L265.99966,48.6142806 L265.99966,81.3492284 L263.42516,81.3492284 L263.42516,48.6142806 L258.644642,48.6142806 L258.644642,45.2852698 L270.780178,45.2852698 Z M73.5136241,49.6129838 L70.498018,69.6976906 L76.5292302,69.6976906 L73.5136241,49.6129838 Z" id="Shape" fill="#2D2D2D"></path>
            <path d="M188.569696,97.0318219 C189.504147,97.0318219 190.445075,97.2645375 191.121845,97.6580434 L191.245577,97.7336924 L191.338673,97.7941313 L190.780101,99.1476691 L190.648013,99.0711457 C189.993421,98.6929155 189.25207,98.4847914 188.558973,98.4847914 C187.564656,98.4847914 186.993899,98.8167176 186.993899,99.3957608 C186.993899,99.8943488 187.551127,100.109794 188.27621,100.293699 L189.10654,100.492049 C190.311917,100.787192 191.630631,101.239656 191.630631,102.78911 C191.630631,103.904791 190.767428,105.207151 188.335252,105.207151 C187.147794,105.207151 185.958106,104.864663 185.258011,104.327703 L185.165624,104.25329 L185.089101,104.188464 L185.703725,102.831027 L185.837763,102.937282 C186.465059,103.433953 187.445728,103.754669 188.335252,103.754669 C189.365637,103.754669 189.933469,103.446626 189.933469,102.888054 C189.933469,102.367392 189.343868,102.151964 188.587679,101.963377 L187.81395,101.778783 C186.60682,101.482469 185.286502,101.026839 185.286502,99.4605863 C185.286502,98.340518 186.146293,97.0318219 188.569696,97.0318219 Z M213.374969,97.0318219 C215.89293,97.0318219 217.72023,98.7509173 217.72023,101.11973 C217.72023,103.488543 215.89293,105.207151 213.374969,105.207151 C210.898439,105.207151 209.030683,103.450038 209.030683,101.11973 C209.030683,98.7889353 210.898439,97.0318219 213.374969,97.0318219 Z M27.0463849,97.1419766 L27.0463849,103.622094 L31.1342932,103.622094 L31.1342932,105.097971 L25.3268022,105.097971 L25.3268022,97.1419766 L27.0463849,97.1419766 Z M38.8787518,97.1419766 L38.8787518,105.097971 L37.1601439,105.097971 L37.1601439,97.1419766 L38.8787518,97.1419766 Z M64.9010881,97.1419766 L64.9010881,98.6051817 L60.644536,98.6051817 L60.644536,100.337924 L64.4200144,100.337924 L64.4200144,101.780171 L60.644536,101.780171 L60.644536,103.633791 L65.0565719,103.633791 L65.0565719,105.097971 L58.9254406,105.097971 L58.9254406,97.1419766 L64.9010881,97.1419766 Z M83.8369694,97.1419766 L87.4896205,105.097971 L85.6754802,105.097971 L84.8936745,103.318437 L81.1581637,103.318437 L80.3870809,105.097971 L78.5953615,105.097971 L82.2363147,97.1419766 L83.8369694,97.1419766 Z M105.304946,97.1419766 C107.193173,97.1419766 108.320552,97.9388921 108.320552,99.2743957 C108.320552,99.9655432 108.019333,100.557746 107.484156,100.936464 C108.275223,101.2835 108.722665,101.976597 108.722665,102.877331 C108.722665,104.275246 107.641829,105.060053 105.673765,105.096632 L101.507534,105.097971 L101.507534,97.1419766 L105.304946,97.1419766 Z M121.125302,97.1419766 L121.125302,98.6051817 L116.869725,98.6051817 L116.869725,100.337924 L120.645203,100.337924 L120.645203,101.780171 L116.869725,101.780171 L116.869725,103.633791 L121.282248,103.633791 L121.282248,105.097971 L115.150629,105.097971 L115.150629,97.1419766 L121.125302,97.1419766 Z M133.673674,97.1419766 L133.673674,98.6168795 L131.082115,98.6168795 L131.082115,105.097971 L129.363507,105.097971 L129.363507,98.6168795 L126.77146,98.6168795 L126.77146,97.1419766 L133.673674,97.1419766 Z M145.651777,97.1419766 L145.651777,98.6168795 L143.05973,98.6168795 L143.05973,105.097971 L141.341122,105.097971 L141.341122,98.6168795 L138.749076,98.6168795 L138.749076,97.1419766 L145.651777,97.1419766 Z M157.595273,97.1419766 L157.595273,98.6051817 L153.340183,98.6051817 L153.340183,100.337924 L157.115662,100.337924 L157.115662,101.780171 L153.340183,101.780171 L153.340183,103.633791 L157.752707,103.633791 L157.752707,105.097971 L151.621088,105.097971 L151.621088,97.1419766 L157.595273,97.1419766 Z M167.597903,97.1419766 C169.733246,97.1419766 171.059977,98.2405989 171.059977,100.010385 C171.059977,101.123232 170.537494,101.977551 169.580447,102.444945 L169.468095,102.497151 L171.319766,105.097971 L169.428128,105.097971 L167.834784,102.851498 L167.716161,102.85619 L165.966054,102.85686 L165.966054,105.097971 L164.246959,105.097971 L164.246959,97.1419766 L167.597903,97.1419766 Z M203.731561,97.1419766 L203.731561,98.6168795 L201.139027,98.6168795 L201.139027,105.097971 L199.420419,105.097971 L199.420419,98.6168795 L196.82886,98.6168795 L196.82886,97.1419766 L203.731561,97.1419766 Z M227.487441,97.1419766 C229.622784,97.1419766 230.949514,98.2405989 230.949514,100.010385 C230.949514,101.123232 230.427032,101.977551 229.469985,102.444945 L229.357633,102.497151 L231.209304,105.097971 L229.317665,105.097971 L227.724322,102.851498 L227.605699,102.85619 L225.855592,102.85686 L225.855592,105.097971 L224.136496,105.097971 L224.136496,97.1419766 L227.487441,97.1419766 Z M237.942874,97.1419766 L240.15864,100.765871 L242.39634,97.1419766 L244.138831,97.1419766 L240.973103,102.289027 L240.973103,105.097971 L239.254007,105.097971 L239.254007,102.31096 L236.076094,97.1419766 L237.942874,97.1419766 Z M46.497946,97.1419766 L49.0138022,102.874 L51.5519011,97.1419766 L53.2958543,97.1419766 L49.7713921,105.097971 L48.1678129,105.097971 L44.6301906,97.1419766 L46.497946,97.1419766 Z M105.562216,101.759754 L103.226629,101.758237 L103.226629,103.710315 L105.438984,103.710315 C106.725015,103.710315 106.960969,103.235161 106.989538,102.8327 L106.992847,102.73452 C106.992847,102.328522 106.841144,101.791904 105.562216,101.759754 Z M213.374969,98.5510791 C211.860099,98.5510791 210.761477,99.6311799 210.761477,101.11973 C210.761477,102.607793 211.860099,103.688381 213.374969,103.688381 C214.890327,103.688381 215.989924,102.607793 215.989924,101.11973 C215.989924,99.6311799 214.890327,98.5510791 213.374969,98.5510791 Z M83.0259191,99.0365396 L81.765964,101.931268 L84.2961097,101.931268 L83.0259191,99.0365396 Z M167.53064,98.6168795 L165.966054,98.6168795 L165.966054,101.414613 L167.53064,101.414613 C168.351926,101.414613 169.330158,101.170908 169.330158,100.010385 C169.330158,98.9284379 168.466907,98.6495257 167.681442,98.6196922 L167.53064,98.6168795 Z M227.420178,98.6168795 L225.855592,98.6168795 L225.855592,101.414613 L227.420178,101.414613 C228.241464,101.414613 229.220183,101.170908 229.220183,100.010385 C229.220183,98.9284379 228.356502,98.6495257 227.570985,98.6196922 L227.420178,98.6168795 Z M105.148487,98.5286583 L103.226629,98.5286583 L103.226629,100.381791 L105.148487,100.381791 C106.105273,100.381791 106.590734,100.071799 106.590734,99.4605863 C106.590734,98.8672718 106.143333,98.5542563 105.261038,98.5301643 L105.148487,98.5286583 Z M205.41995,7.10542736e-14 C209.22321,7.10542736e-14 212.186176,1.7566259 213.763435,4.94721223 C216.599187,10.6864658 214.532568,19.7362086 208.620772,27.4655576 C200.442518,38.1583597 189.40268,43.8103669 176.695412,43.8103669 C173.866179,43.8103669 171.656479,43.6510075 169.606007,43.2966828 L169.339419,43.2493579 L169.159077,43.8030558 L169.069368,44.036007 L168.920254,44.4438991 C167.378457,48.781775 164.367786,60.7778928 164.478738,70.4953173 L164.483353,70.8050863 C164.571086,76.6505953 166.223894,80.1409388 168.904649,80.1409388 C170.469236,80.1409388 172.333092,78.8634371 174.443577,76.3449892 C176.764137,73.4946151 178.08648,67.4487806 181.654322,60.5821475 C181.956516,59.9477345 182.27306,59.3198724 182.595967,58.7127856 L182.839216,58.2615881 L182.904041,58.1319371 L183.004935,57.9647554 L183.004935,57.9647554 C183.917367,56.3231583 184.4155,54.7892788 185.363025,53.5371223 C186.05661,52.7850486 186.687318,52.4102302 187.24784,52.4102302 C187.780579,52.4102302 188.239719,52.6739191 188.474164,53.1155126 C188.790005,53.7091781 188.661817,54.5104802 188.121279,55.3127572 L187.486766,56.3485191 C185.625408,59.4588676 182.926915,64.9295427 183.127275,76.5843076 C183.16773,78.9311871 184.120617,80.3900054 185.719322,80.3900054 C186.932486,80.3900054 188.210475,79.5891906 189.414378,78.0733453 L189.537457,77.9113408 C190.343866,76.8225301 191.631189,74.5858735 193.152241,71.8712808 L195.359514,67.9149578 L196.485133,65.9083064 C196.675984,65.5698215 196.868299,65.2297853 197.061842,64.8889029 C198.431951,58.9931906 200.95966,53.0126691 203.504915,49.6466151 C203.862187,49.1986853 204.342773,48.8877176 204.676649,48.8877176 C204.949112,48.8877176 205.189892,49.0139568 205.356099,49.2425522 C205.711908,49.7362986 205.698261,50.677 205.317594,51.8243633 C203.08818,55.9756349 200.040892,64.1236691 198.589385,72.2692662 C197.995719,75.6670018 198.194095,78.3540935 199.119687,79.4551529 C199.389712,79.7758687 199.714327,79.9386637 200.084272,79.9386637 C200.920667,79.9386637 201.81409,79.4025126 202.740169,78.3453201 C207.486568,73.4341763 210.890153,65.0746061 212.591214,54.1605198 C211.345394,52.7845612 211.117286,51.3920306 211.450187,50.6136367 C211.618831,50.2188345 211.927362,49.9926763 212.296818,49.9926763 C213.027933,49.9926763 213.739065,51.1005594 214.111446,52.8162428 C215.371401,55.3985414 217.04273,57.0801061 218.83445,57.5714155 C220.225518,54.5913903 221.888074,52.080741 223.648599,50.3036439 C225.326752,48.5972212 227.201331,47.617527 228.790288,47.617527 C229.617423,47.617527 230.32173,47.9119227 230.827662,48.4680576 C231.555365,49.2688723 231.853173,50.5990144 231.689403,52.3146978 C230.838385,59.2364083 225.375005,66.7927266 218.567836,67.1192914 C217.934691,69.8385522 217.773358,72.0723525 218.075065,73.944982 C218.610241,77.2096547 220.054437,79.159295 221.93779,79.159295 C227.307659,79.159295 233.96596,65.4321628 236.904241,59.1504581 L237.376504,58.1387608 C237.534912,57.7181259 237.813223,57.6810827 238.083248,57.6810827 C238.366433,57.6810827 238.634509,57.8541133 238.76611,58.1207266 C238.896126,58.3838874 238.873377,58.6773557 238.705371,58.9373083 L238.655955,59.0073255 L236.562776,63.2746042 L236.039393,64.3307908 C232.647483,71.1432477 229.420157,76.9009052 224.482558,80.0795252 C223.525772,80.7048723 222.627475,80.9958561 221.656067,80.9958561 C219.185385,80.9958561 217.310318,79.0374424 216.235092,75.3321511 C214.991221,71.0897338 215.718924,65.0214784 218.180833,59.0643525 C216.50073,58.5813291 214.988297,57.4286043 213.953038,55.8493957 C212.144746,66.1883381 208.82061,74.0848687 204.068362,79.3240396 C202.470631,81.0806655 201.111732,81.899027 199.791826,81.899027 C199.042189,81.899027 198.374924,81.5880594 197.810504,80.9753849 C196.367282,79.4103112 195.745835,75.9794317 196.104568,71.5620342 C196.120165,71.0312446 196.157209,70.4624371 196.21521,69.8648723 L193.437124,74.8589094 L192.637066,76.270872 C191.966702,77.4316599 191.48762,78.1827784 191.010646,78.7766781 C189.216489,80.9544263 187.426719,82.104714 185.832401,82.104714 C183.411262,82.104714 181.514376,79.9139641 180.734441,76.2330502 L180.695099,76.0413327 C180.315406,74.2778831 180.34855,72.1786079 180.793068,69.7902986 L180.416827,70.4305701 C178.794989,73.1702926 177.287052,75.4534128 176.00366,77.1095726 L175.856579,77.2978759 C173.488254,80.3943921 170.91814,82.1013022 168.622439,82.1013022 C164.872077,82.1013022 162.383657,77.9043413 161.909799,70.8362266 L161.873759,70.2158076 C161.425342,61.6617608 163.009912,51.9842338 166.455901,42.2184856 C159.628947,40.2843032 152.315912,36.4358233 145.129133,32.4570271 L139.607313,29.3844779 C129.378598,23.7093602 118.967061,18.2822644 110.047933,18.2822644 C105.086135,18.2822644 100.962439,19.8744237 97.4514986,23.1481432 L97.2534191,23.3352446 C94.7505683,25.7269658 92.2628273,28.3623921 91.7305755,31.9609406 C91.606286,33.0956313 90.9005162,33.5006691 90.3346331,33.5006691 C89.9929586,33.5006691 89.6824784,33.3291007 89.4831277,33.0293435 L89.4411634,32.9615607 C89.2694118,32.6626596 89.0965784,32.0744586 89.4496908,31.1059578 L89.527482,30.9071601 C90.6002716,28.1006529 92.5942662,25.3287518 95.6201079,22.4374353 C99.8313309,18.487464 104.581142,16.5680432 110.141516,16.5680432 C119.54069,16.5680432 130.111906,22.084592 140.47208,27.8528937 L144.932217,30.3456991 C152.411689,34.5195122 160.054095,38.6386593 167.079299,40.5481313 C172.971112,24.5610809 183.010297,10.6538094 193.30391,4.22779496 C197.773948,1.42226259 201.850158,7.10542736e-14 205.41995,7.10542736e-14 Z M229.259664,49.7007176 C228.403192,49.7007176 226.986095,50.7582914 225.354963,52.6099059 L225.218547,52.7660396 C224.609772,53.4893561 223.022764,55.5184442 221.4728,58.6997698 C221.456716,58.7563094 221.431371,58.8094371 221.397739,58.8596403 C220.415121,60.9018885 219.621129,63.056241 219.037212,65.2671331 C222.948191,64.8820791 229.165106,59.8856385 230.021973,52.8503615 L230.054638,52.5208964 C230.204023,50.8283737 229.964373,50.1570768 229.72904,49.8942194 C229.610112,49.7621313 229.461451,49.7007176 229.259664,49.7007176 Z M191.255813,44.9431079 C192.203136,44.9431079 192.95417,45.5937731 193.283857,46.6919822 L193.317558,46.8113507 L193.327799,46.8820252 C193.329255,48.0420612 192.553299,48.8672464 191.483433,48.8672464 C190.544194,48.8672464 189.410478,47.9923453 189.410478,46.9049335 C189.410478,45.8409173 190.255647,44.9431079 191.255813,44.9431079 Z M206.264631,2.57352518 C203.457637,2.57352518 200.05064,3.74282194 196.410662,5.95615108 C185.409817,12.6458543 177.741881,22.9043741 169.974514,41.3416349 C172.574468,41.9280975 175.00704,42.0793676 176.68835,42.0943654 L177.405918,42.0930783 L177.878657,42.0842986 C185.090801,41.9031831 197.688133,39.4342795 207.280881,26.0481691 C212.57318,18.6020054 214.540854,10.5207464 212.176915,5.93909173 C211.040275,3.73746043 208.996077,2.57352518 206.264631,2.57352518 Z" id="Shape" fill="#8FC52A"></path>
        </g>
    </g>
</svg>