<svg viewBox="0 0 271 106" xmlns="http://www.w3.org/2000/svg">
  <path fill="#2D2D2D" d="M15.668 100.923v1.067H.416v-1.067h15.252zm251.611 0v1.067h-15.252v-1.067h15.252zM92.134 44.453c3.946 0 5.92 2.59 5.92 7.768v4.716H95.48v-4.938c0-1.332-.288-2.367-.864-3.107-.576-.74-1.44-1.11-2.592-1.11-1.153 0-2.017.37-2.593 1.11-.577.74-.865 1.757-.865 3.051 0 1.295.086 2.313.258 3.052.171.74.552 1.517 1.14 2.33l6.583 9.543c.71 1.184 1.2 2.322 1.47 3.412.27 1.091.405 2.47.405 4.134 0 5.18-2.072 7.767-6.215 7.767s-6.215-2.588-6.215-7.767v-4.716h2.574v4.938c0 1.331.307 2.367.92 3.107.613.74 1.52 1.11 2.721 1.11s2.109-.37 2.721-1.11c.613-.74.92-1.748.92-3.024 0-1.277-.092-2.293-.276-3.051-.183-.759-.558-1.563-1.121-2.414l-6.473-9.543c-.76-1.146-1.281-2.265-1.563-3.357-.282-1.09-.423-2.47-.423-4.133 0-2.478.509-4.392 1.526-5.743 1.018-1.35 2.556-2.025 4.616-2.025zm-89.56.832V78.02h6.73v3.33H0V45.284h2.575zm17.358 0v3.33h-1.838V78.02h1.838v3.33h-6.251v-3.33h1.838V48.614h-1.838v-3.329h6.251zm16.721 0v3.33h-7.539v12.76h6.068v3.33h-6.068v16.644H26.54V45.285h10.113zm15.629 0v3.33h-7.907v12.76h6.436v3.33h-6.436V78.02h8.275v3.33H41.8V45.284h10.482zm23.18 0l5.406 36.064h-2.574l-1.25-8.322H70.02l-1.25 8.322h-2.574L71.6 45.285h3.862zm37.877 0l3.016 30.46 3.934-30.46h2.759l3.935 30.46 3.014-30.46h2.575l-3.567 36.064H125.4l-3.752-28.795-3.713 28.795h-3.604l-3.568-36.064h2.575zm35.757 0v3.33h-7.906v12.76h6.435v3.33h-6.435V78.02h8.274v3.33h-10.848V45.284h10.48zm104.804 0v3.33h-1.839V78.02h1.839v3.33h-6.252v-3.33h1.84V48.614h-1.84v-3.329h6.252zm16.88 0v3.33H266v32.734h-2.575V48.614h-4.78v-3.329h12.135zM73.514 49.613l-3.016 20.085h6.031l-3.015-20.085z"/>
  <path fill="#8FC52A" d="M188.57 97.032c.934 0 1.875.233 2.552.626l.124.076.093.06-.559 1.354-.132-.077c-.655-.378-1.396-.586-2.089-.586-.994 0-1.565.332-1.565.91 0 .5.557.715 1.282.899l.83.198c1.206.295 2.525.748 2.525 2.297 0 1.116-.864 2.418-3.296 2.418-1.187 0-2.377-.342-3.077-.88l-.092-.074-.077-.065.615-1.357.134.106c.627.497 1.608.818 2.497.818 1.03 0 1.598-.308 1.598-.867 0-.52-.59-.736-1.345-.925l-.774-.184c-1.207-.297-2.527-.752-2.527-2.318 0-1.12.86-2.43 3.283-2.43zm24.805 0c2.518 0 4.345 1.719 4.345 4.088 0 2.369-1.827 4.087-4.345 4.087-2.477 0-4.344-1.757-4.344-4.087 0-2.331 1.867-4.088 4.344-4.088zm-186.329.11v6.48h4.088v1.476h-5.807v-7.956h1.72zm11.833 0v7.956H37.16v-7.956h1.719zm26.022 0v1.463h-4.256v1.733h3.775v1.442h-3.775v1.854h4.412v1.464h-6.132v-7.956h5.976zm18.936 0l3.653 7.956h-1.815l-.781-1.78h-3.736l-.77 1.78h-1.793l3.641-7.956h1.601zm21.468 0c1.888 0 3.016.797 3.016 2.132 0 .692-.302 1.284-.837 1.662.791.347 1.239 1.04 1.239 1.941 0 1.398-1.081 2.183-3.05 2.22l-4.165.001v-7.956h3.797zm15.82 0v1.463h-4.255v1.733h3.775v1.442h-3.775v1.854h4.412v1.464h-6.131v-7.956h5.974zm12.549 0v1.475h-2.592v6.481h-1.718v-6.481h-2.593v-1.475h6.903zm11.978 0v1.475h-2.592v6.481h-1.719v-6.481h-2.592v-1.475h6.903zm11.943 0v1.463h-4.255v1.733h3.776v1.442h-3.776v1.854h4.413v1.464h-6.132v-7.956h5.974zm10.003 0c2.135 0 3.462 1.099 3.462 2.868 0 1.113-.523 1.968-1.48 2.435l-.112.052 1.852 2.601h-1.892l-1.593-2.247-.119.005h-1.75v2.242h-1.719v-7.956h3.35zm36.134 0v1.475h-2.593v6.481h-1.719v-6.481h-2.591v-1.475h6.903zm23.755 0c2.136 0 3.463 1.099 3.463 2.868 0 1.113-.523 1.968-1.48 2.435l-.112.052 1.851 2.601h-1.891l-1.594-2.247-.118.005h-1.75v2.242h-1.72v-7.956h3.351zm10.456 0l2.216 3.624 2.237-3.624h1.743l-3.166 5.147v2.809h-1.719v-2.787l-3.178-5.169h1.867zm-191.445 0l2.516 5.732 2.538-5.732h1.744l-3.525 7.956h-1.603l-3.538-7.956h1.868zm59.064 4.618l-2.335-.002v1.952h2.212c1.286 0 1.522-.475 1.55-.877l.004-.098c0-.406-.152-.943-1.43-.975zm107.813-3.209c-1.515 0-2.614 1.08-2.614 2.569 0 1.488 1.1 2.568 2.614 2.568 1.515 0 2.615-1.08 2.615-2.568 0-1.489-1.1-2.569-2.615-2.569zm-130.35.486l-1.259 2.894h2.53l-1.27-2.894zm84.506-.42h-1.565v2.798h1.565c.82 0 1.8-.244 1.8-1.405 0-1.082-.864-1.36-1.65-1.39l-.15-.003zm59.89 0h-1.565v2.798h1.564c.821 0 1.8-.244 1.8-1.405 0-1.082-.863-1.36-1.649-1.39l-.15-.003zm-122.273-.088h-1.921v1.853h1.921c.957 0 1.443-.31 1.443-.921 0-.594-.448-.907-1.33-.93l-.113-.002zM205.42 0c3.803 0 6.766 1.757 8.343 4.947 2.836 5.74.77 14.79-5.142 22.519-8.178 10.692-19.218 16.344-31.926 16.344-2.829 0-5.039-.159-7.089-.513l-.267-.048-.18.554-.09.233-.149.408c-1.542 4.338-4.552 16.334-4.441 26.051l.004.31c.088 5.846 1.74 9.336 4.422 9.336 1.564 0 3.428-1.278 5.539-3.796 2.32-2.85 3.642-8.896 7.21-15.763.303-.634.62-1.262.942-1.87l.243-.45.065-.13.1-.167c.913-1.642 1.412-3.176 2.359-4.428.694-.752 1.324-1.127 1.885-1.127.533 0 .992.264 1.226.706.316.593.188 1.394-.353 2.197l-.634 1.036c-1.862 3.11-4.56 8.58-4.36 20.235.04 2.347.994 3.806 2.592 3.806 1.213 0 2.491-.8 3.695-2.317l.123-.162c.807-1.088 2.094-3.325 3.615-6.04l2.208-3.956 1.125-2.007.577-1.02c1.37-5.895 3.898-11.875 6.443-15.241.357-.448.838-.76 1.172-.76.272 0 .513.127.68.356.355.493.341 1.434-.04 2.581-2.229 4.152-5.276 12.3-6.728 20.445-.593 3.398-.395 6.085.53 7.186.27.32.595.484.965.484.837 0 1.73-.536 2.656-1.594 4.747-4.91 8.15-13.27 9.851-24.184-1.246-1.376-1.474-2.769-1.14-3.547.168-.395.476-.621.846-.621.73 0 1.442 1.108 1.814 2.823 1.26 2.583 2.932 4.264 4.723 4.755 1.392-2.98 3.054-5.49 4.815-7.267 1.678-1.707 3.552-2.686 5.141-2.686.827 0 1.532.294 2.038.85.727.8 1.025 2.131.861 3.847-.85 6.921-6.314 14.478-13.121 14.804-.633 2.72-.795 4.953-.493 6.826.535 3.265 1.98 5.214 3.863 5.214 5.37 0 12.028-13.727 14.966-20.009l.473-1.011c.158-.42.436-.458.706-.458.283 0 .552.173.683.44a.807.807 0 01-.06.816l-.05.07-2.093 4.268-.524 1.056c-3.392 6.812-6.619 12.57-11.556 15.749-.957.625-1.856.916-2.827.916-2.47 0-4.346-1.959-5.42-5.664-1.245-4.242-.517-10.31 1.945-16.268-1.68-.483-3.193-1.635-4.228-3.215-1.808 10.34-5.132 18.236-9.885 23.475-1.597 1.757-2.956 2.575-4.276 2.575-.75 0-1.417-.31-1.981-.924-1.444-1.565-2.065-4.996-1.706-9.413.015-.53.052-1.1.11-1.697l-2.778 4.994-.8 1.412c-.67 1.16-1.15 1.912-1.626 2.506-1.795 2.177-3.584 3.328-5.179 3.328-2.42 0-4.318-2.191-5.098-5.872l-.039-.192c-.38-1.763-.346-3.862.098-6.25l-.376.64c-1.622 2.74-3.13 5.022-4.413 6.679l-.147.188c-2.369 3.096-4.939 4.803-7.235 4.803-3.75 0-6.238-4.197-6.712-11.265l-.036-.62c-.449-8.554 1.136-18.232 4.582-27.998-6.827-1.934-14.14-5.782-21.327-9.761l-5.522-3.073c-10.228-5.675-20.64-11.102-29.56-11.102-4.96 0-9.085 1.592-12.596 4.866l-.198.187c-2.502 2.392-4.99 5.027-5.522 8.626-.125 1.135-.83 1.54-1.396 1.54-.342 0-.653-.172-.852-.472l-.042-.067c-.172-.3-.344-.888.009-1.856l.077-.199c1.073-2.806 3.067-5.578 6.093-8.47 4.211-3.95 8.961-5.869 14.522-5.869 9.399 0 19.97 5.517 30.33 11.285l4.46 2.493c7.48 4.174 15.122 8.293 22.147 10.202 5.892-15.987 15.931-29.894 26.225-36.32C197.774 1.422 201.85 0 205.42 0zm23.84 49.7c-.857 0-2.274 1.058-3.905 2.91l-.136.156c-.61.723-2.196 2.752-3.746 5.934a.563.563 0 01-.075.16 36.024 36.024 0 00-2.36 6.407c3.91-.385 10.127-5.381 10.984-12.417l.033-.33c.149-1.692-.09-2.363-.326-2.626a.587.587 0 00-.47-.193zm-38.004-4.757c.947 0 1.698.65 2.028 1.749l.034.12.01.07c.001 1.16-.775 1.985-1.845 1.985-.939 0-2.073-.875-2.073-1.962 0-1.064.846-1.962 1.846-1.962zm15.009-42.37c-2.807 0-6.214 1.17-9.854 3.383-11.001 6.69-18.67 16.948-26.436 35.386 2.6.586 5.032.737 6.713.752h.718l.473-.01c7.212-.18 19.81-2.65 29.402-16.036 5.292-7.446 7.26-15.527 4.896-20.109-1.137-2.202-3.18-3.365-5.912-3.365z"/>
</svg>
