<?xml version="1.0" encoding="UTF-8"?>
<svg width="336px" height="136px" viewBox="0 0 336 136" version="1.1" xmlns="http://www.w3.org/2000/svg" xmlns:xlink="http://www.w3.org/1999/xlink">
    <!-- Generator: Sketch 63.1 (92452) - https://sketch.com -->
    <title>whatif-logo</title>
    <desc>Created with Sketch.</desc>
    <g id="whatif-logo" stroke="none" stroke-width="1" fill="none" fill-rule="evenodd">
        <path d="M316.42289,91 C320.126517,91 322.988915,91.8361839 324.976978,93.5508286 C326.916164,95.2233193 327.9211,97.562947 327.995534,100.497895 L328,100.852941 L328,115.764706 L311.433,115.764 L311.433338,126.132644 L311.436447,126.355915 C311.513064,128.981178 313.049976,130.205882 316.486607,130.205882 C319.91289,130.205882 321.457647,128.990234 321.536577,126.363162 L321.539773,126.147059 L321.539773,121.669118 L328,121.669118 L328,126.160027 L327.995122,126.522954 C327.918639,129.443401 326.937977,131.773007 325.049689,133.441321 C323.101822,135.162273 320.257268,136 316.550325,136 C312.846697,136 309.984299,135.163816 307.996237,133.449171 C306.05705,131.776681 305.052114,129.437053 304.97768,126.502105 L304.973214,126.147059 L304.973214,100.839973 L304.978092,100.477046 C305.054575,97.5565989 306.035238,95.2269934 307.923526,93.5586793 C309.871392,91.8377272 312.715947,91 316.42289,91 Z M278.19237,91 C281.895998,91 284.758396,91.8361839 286.746458,93.5508286 C288.685644,95.2233193 289.69058,97.562947 289.765015,100.497895 L289.769481,100.852941 L289.769481,105.330882 L283.309253,105.330882 L283.309357,100.867356 L283.306247,100.644085 C283.229631,98.018822 281.692719,96.7941176 278.256088,96.7941176 C274.829805,96.7941176 273.285048,98.0097664 273.206118,100.636838 L273.202922,100.852941 L273.202818,126.132644 L273.205928,126.355915 C273.282544,128.981178 274.819456,130.205882 278.256088,130.205882 C281.68237,130.205882 283.227127,128.990234 283.306057,126.363162 L283.309253,126.147059 L283.309,117.977 L276.17289,117.977941 L276.17289,112.183824 L289.769481,112.183824 L289.769481,126.160027 L289.764602,126.522954 C289.68812,129.443401 288.707457,131.773007 286.819169,133.441321 C284.871303,135.162273 282.026748,136 278.319805,136 C274.616177,136 271.753779,135.163816 269.765717,133.449171 C267.826531,131.776681 266.821595,129.437053 266.747161,126.502105 L266.742695,126.147059 L266.742695,100.839973 L266.747573,100.477046 C266.824056,97.5565989 267.804718,95.2269934 269.693006,93.5586793 C271.640873,91.8377272 274.485427,91 278.19237,91 Z M23.4496753,91 C27.1533031,91 30.0157011,91.8361839 32.0037633,93.5508286 C33.9429497,95.2233193 34.9478856,97.562947 35.0223198,100.497895 L35.0267857,100.852941 L35.0267857,107.860294 L28.5665584,107.860294 L28.5666623,100.867356 L28.5635525,100.644085 C28.4869361,98.018822 26.9500245,96.7941176 23.5133929,96.7941176 C20.0871104,96.7941176 18.5423533,98.0097664 18.463423,100.636838 L18.4602273,100.852941 L18.4601234,126.132644 L18.4632332,126.355915 C18.5398496,128.981178 20.0767612,130.205882 23.5133929,130.205882 C26.9396754,130.205882 28.4844324,128.990234 28.5633627,126.363162 L28.5665584,126.147059 L28.5665584,121.669118 L35.0267857,121.669118 L35.0267857,126.160027 L35.0219075,126.522954 C34.9454248,129.443401 33.9647622,131.773007 32.0764743,133.441321 C30.1286078,135.162273 27.2840533,136 23.5771104,136 C19.8734826,136 17.0110847,135.163816 15.0230224,133.449171 C13.083836,131.776681 12.0789001,129.437053 12.0044659,126.502105 L12,126.147059 L12,100.839973 L12.0048782,100.477046 C12.0813609,97.5565989 13.0620235,95.2269934 14.9503114,93.5586793 C16.8981779,91.8377272 19.7427324,91 23.4496753,91 Z M200.138393,91 C203.842021,91 206.704419,91.8361839 208.692481,93.5508286 C210.631667,95.2233193 211.636603,97.562947 211.711037,100.497895 L211.715503,100.852941 L211.715503,115.764706 L195.148,115.764 L195.148841,126.132644 L195.151951,126.355915 C195.228567,128.981178 196.765479,130.205882 200.20211,130.205882 C203.628393,130.205882 205.17315,128.990234 205.25208,126.363162 L205.255276,126.147059 L205.255276,121.669118 L211.715503,121.669118 L211.715503,126.160027 L211.710625,126.522954 C211.634142,129.443401 210.65348,131.773007 208.765192,133.441321 C206.817325,135.162273 203.972771,136 200.265828,136 C196.5622,136 193.699802,135.163816 191.71174,133.449171 C189.772554,131.776681 188.767618,129.437053 188.693183,126.502105 L188.688718,126.147059 L188.688718,100.839973 L188.693596,100.477046 C188.770078,97.5565989 189.750741,95.2269934 191.639029,93.5586793 C193.586895,91.8377272 196.43145,91 200.138393,91 Z M101.631088,91 C105.255498,91 108.049522,91.8399174 109.975711,93.5627272 C111.843677,95.2334612 112.810598,97.5631068 112.884963,100.484668 L112.88961,100.852941 L112.88961,135.051471 L109.306893,135.051471 L108.089,132.077 L108.010856,132.174384 C107.42917,132.865325 106.775067,133.477959 106.049568,134.011041 L105.680873,134.270946 L105.348526,134.487461 C103.744079,135.494359 101.966763,136 100.038149,136 C93.4897302,136 89.9828475,132.723425 89.8658513,126.473007 L89.8628247,126.147059 L89.8628247,119.814193 L89.865928,119.491335 C89.9816706,113.349162 93.3767604,110.084261 99.7025109,109.973504 L100.038149,109.970588 L106.429,109.97 L106.429591,100.620397 L106.424514,100.360743 C106.378289,99.2437993 106.008778,98.4184565 105.310543,97.8158908 C104.537665,97.1489092 103.322174,96.7941176 101.631088,96.7941176 C98.4601009,96.7941176 97.0399495,97.9230052 96.963499,100.385645 L96.9602273,100.6 L96.9602273,105.330882 L90.5,105.330882 L90.500078,100.840448 L90.5046877,100.478003 C90.5781961,97.5645372 91.5208254,95.2402461 93.3409616,93.5710774 C95.2268735,91.8415885 98.0032238,91 101.631088,91 Z M135.827922,91.9485294 L135.827,129.257 L147.488231,129.257353 L147.488231,135.051471 L129.367695,135.051471 L129.367695,91.9485294 L135.827922,91.9485294 Z M57.0093344,91.9485294 L57.009,110.286 L67.561,110.286 L67.5616883,91.9485294 L74.0219156,91.9485294 L74.0219156,135.051471 L67.5616883,135.051471 L67.561,116.08 L57.009,116.08 L57.0093344,135.051471 L50.5491071,135.051471 L50.5491071,91.9485294 L57.0093344,91.9485294 Z M240.853896,91 C247.525211,91 251.100081,94.2737779 251.21739,100.532148 L251.220373,100.852941 L251.220373,135.051471 L244.760146,135.051471 L244.760256,100.867744 L244.755925,100.567378 C244.718327,99.3168117 244.432462,98.3840368 243.924776,97.7427808 C243.44627,97.1383825 242.446896,96.7941176 240.853896,96.7941176 C239.243626,96.7941176 237.760238,97.4120618 236.36661,98.6830001 C235.060666,99.8739745 234.409562,100.96434 234.341248,101.945615 L234.335227,102.117647 L234.335227,135.051471 L227.875,135.051471 L227.875,91.9485294 L231.471448,91.9485294 L232.634,94.95 L232.791233,94.7586891 C234.733004,92.4466929 237.206406,91.1874934 240.16304,91.0194037 L240.506332,91.0048531 L240.853896,91 Z M165.966315,91.9485294 L165.966,129.257 L177.626623,129.257353 L177.626623,135.051471 L159.506088,135.051471 L159.506088,91.9485294 L165.966315,91.9485294 Z M106.429,115.764 L100.053013,115.764595 L99.7593205,115.768842 C98.4143778,115.809584 97.566057,116.141082 97.1357371,116.701602 C96.6430517,117.343358 96.3646199,118.279357 96.3273576,119.529459 L96.3230519,119.823529 L96.3229489,126.132704 L96.3271583,126.433532 C96.363756,127.688868 96.6423451,128.62631 97.1357371,129.268986 C97.5957644,129.868202 98.5355173,130.205882 100.038149,130.205882 C101.565793,130.205882 102.988446,129.617597 104.340822,128.405941 C105.611852,127.267168 106.283512,126.194702 106.411702,125.248064 L106.429383,125.072059 L106.429,115.764 Z M316.486607,96.7941176 C313.060325,96.7941176 311.515568,98.0097664 311.436637,100.636838 L311.433442,100.852941 L311.433,109.97 L321.539,109.97 L321.539877,100.867356 L321.536767,100.644085 C321.46015,98.018822 319.923239,96.7941176 316.486607,96.7941176 Z M200.20211,96.7941176 C196.775828,96.7941176 195.231071,98.0097664 195.152141,100.636838 L195.148945,100.852941 L195.148,109.97 L205.255,109.97 L205.25538,100.867356 L205.25227,100.644085 C205.175654,98.018822 203.638742,96.7941176 200.20211,96.7941176 Z" id="Shape" fill="#2D2D2D" fill-rule="nonzero"></path>
        <path d="M35.3429977,71.133574 L42.7564069,49.2129964 L49.9112089,71.133574 L68.8757442,71.133574 L85.2542066,23.7400722 L68.1861248,23.7400722 L59.7382863,49.0397112 L51.5490551,23.7400722 L34.9981879,23.7400722 L26.5503495,48.7797834 L18.4473207,23.7400722 L-2.84217094e-14,23.7400722 L16.3784623,71.133574 L35.3429977,71.133574 Z M109.528864,71.133574 L109.528864,48.866426 C109.528864,45.5740072 110.204116,43.1624549 111.554621,41.631769 C112.905126,40.101083 114.672275,39.3357401 116.85607,39.3357401 C120.706446,39.3357401 122.631633,42.0505415 122.631633,47.4801444 L122.631633,47.4801444 L122.631633,71.133574 L142.113383,71.133574 L142.113383,44.101083 C142.113383,36.9963899 140.346233,31.6823105 136.811934,28.1588448 C133.277634,24.6353791 128.608335,22.8736462 122.804038,22.8736462 C117.574424,22.8736462 113.149366,24.433213 109.528864,27.5523466 L109.528864,27.5523466 L109.528864,6.84476534 L90.0471136,6.84476534 L90.0471136,71.133574 L109.528864,71.133574 Z M164.73285,72 C171.399172,72 175.852964,69.631769 178.094227,64.8953069 L178.094227,64.8953069 L178.094227,71.133574 L196.196738,71.133574 L196.196738,45.6606498 C196.196738,37.9205776 194.012943,32.1877256 189.645353,28.4620939 C185.277763,24.7364621 178.956252,22.8736462 170.680818,22.8736462 C166.887911,22.8736462 163.080637,23.3501805 159.258996,24.3032491 C155.437354,25.2563177 152.176029,26.5703971 149.475019,28.2454874 L149.475019,28.2454874 L155.681595,41.1552347 C157.233238,40 159.100958,39.0902527 161.284753,38.4259928 C163.468548,37.7617329 165.623609,37.4296029 167.749935,37.4296029 C173.037018,37.4296029 175.996635,39.2779783 176.628786,42.9747292 L176.628786,42.9747292 L168.784364,42.9747292 C161.54336,42.9747292 156.141341,44.1877256 152.578307,46.6137184 C149.015273,49.0397112 147.233756,52.5920578 147.233756,57.2707581 C147.233756,60.0433213 147.909009,62.5415162 149.259513,64.765343 C150.610018,66.9891697 152.592674,68.7509025 155.207481,70.0505415 C157.822288,71.3501805 160.997411,72 164.73285,72 Z M170.594616,60.2166065 C169.157908,60.2166065 168.02291,59.8555957 167.189619,59.133574 C166.356329,58.4115523 165.939684,57.5018051 165.939684,56.4043321 C165.939684,53.7472924 167.92234,52.4187726 171.887652,52.4187726 L171.887652,52.4187726 L176.714988,52.4187726 L176.714988,55.7111913 C176.197774,57.2129964 175.393218,58.3393502 174.30132,59.0902527 C173.209423,59.8411552 171.973855,60.2166065 170.594616,60.2166065 Z M228.402019,72 C233.459229,72 237.453275,71.1624549 240.384157,69.4873646 L240.384157,69.4873646 L235.729226,55.8844765 C234.464924,56.7509025 232.999482,57.1841155 231.332902,57.1841155 C230.126068,57.1841155 229.149107,56.7797834 228.402019,55.9711191 C227.654931,55.1624549 227.281388,54.0361011 227.281388,52.5920578 L227.281388,52.5920578 L227.281388,40.6353791 L236.93606,40.6353791 L236.93606,26.3393502 L227.281388,26.3393502 L227.281388,13.0830325 L207.799638,13.0830325 L207.799638,26.3393502 L201.334455,26.3393502 L201.334455,40.6353791 L207.799638,40.6353791 L207.799638,52.765343 C207.799638,59.1768953 209.581155,63.9855596 213.144188,67.1913357 C216.707222,70.3971119 221.793166,72 228.402019,72 Z M280.899301,19.9277978 C284.462335,19.9277978 287.307015,18.9602888 289.433342,17.0252708 C291.559669,15.0902527 292.622832,12.6209386 292.622832,9.61732852 C292.622832,6.78700361 291.559669,4.4765343 289.433342,2.68592058 C287.307015,0.895306859 284.462335,-5.61328761e-13 280.899301,-5.61328761e-13 C277.393735,-5.61328761e-13 274.563422,0.938628159 272.408361,2.81588448 C270.253301,4.69314079 269.17577,7.07581227 269.17577,9.96389892 C269.17577,12.8519856 270.253301,15.234657 272.408361,17.1119134 C274.563422,18.9891697 277.393735,19.9277978 280.899301,19.9277978 Z M290.640176,71.133574 L290.640176,23.7400722 L271.158426,23.7400722 L271.158426,71.133574 L290.640176,71.133574 Z M322.89723,71.133574 L322.89723,40.6353791 L332.551903,40.6353791 L332.551903,26.3393502 L322.293813,26.3393502 L322.293813,26.2527076 C322.293813,24.4043321 322.710458,23.032491 323.543748,22.1371841 C324.377039,21.2418773 325.512037,20.7942238 326.948744,20.7942238 C328.270515,20.7942238 329.735957,21.1696751 331.345069,21.9205776 L331.345069,21.9205776 L336,8.31768953 C334.620761,7.566787 332.896712,6.98916968 330.827854,6.58483755 C328.758996,6.18050542 326.632669,5.97833935 324.448874,5.97833935 C317.782552,5.97833935 312.610406,7.7833935 308.932436,11.3935018 C305.254465,15.0036101 303.41548,19.898917 303.41548,26.0794224 L303.41548,26.0794224 L303.41548,26.3393502 L296.950298,26.3393502 L296.950298,40.6353791 L303.41548,40.6353791 L303.41548,71.133574 L322.89723,71.133574 Z" id="whatif" fill="#8FC52A" fill-rule="nonzero"></path>
    </g>
</svg>